<svg width="16" height="16" viewBox="0 0 16 16" fill="none" xmlns="http://www.w3.org/2000/svg">
<path fill-rule="evenodd" clip-rule="evenodd" d="M7.9987 2C6.80208 2 5.83203 2.97005 5.83203 4.16667L5.83203 5.66667H10.1654V4.16667C10.1654 2.97005 9.19532 2 7.9987 2ZM11.1654 5.66667V4.16667C11.1654 2.41777 9.7476 1 7.9987 1C6.2498 1 4.83203 2.41777 4.83203 4.16667L4.83203 5.66667H3.33203L2.83203 6.16667L2.83203 14.1667L3.33203 14.6667L12.6654 14.6667L13.1654 14.1667L13.1654 6.16667L12.6654 5.66667H11.1654ZM3.83203 6.66667L3.83203 13.6667L12.1654 13.6667V6.66667L3.83203 6.66667ZM5.4987 10.6666V9.66667H6.4987V10.6666H5.4987ZM7.4987 10.6666V9.66667L8.4987 9.66667V10.6666L7.4987 10.6666ZM9.4987 10.6666V9.66667H10.4987V10.6666H9.4987Z" fill="#181818"/>
</svg>
